<svg xmlns="http://www.w3.org/2000/svg" viewBox="0 0 864 864">
  <defs>
    <!-- 高饱和度蓝青渐变 (用于绿色柱左半 & 红色柱右半) -->
    <linearGradient id="grad-blue" x1="0" y1="0" x2="0" y2="1">
      <stop offset="0%" stop-color="#00A8FF"/> <!-- 霓虹蓝 100%饱和 -->
      <stop offset="100%" stop-color="#00A896"/> <!-- 电青 100%饱和 -->
    </linearGradient>
    <!-- 高饱和度黄绿渐变 (用于绿色柱右半 & 红色柱左半) -->
    <linearGradient id="grad-green" x1="0" y1="0" x2="0" y2="1">
      <stop offset="0%" stop-color="#B6FF00"/> <!-- 荧光黄绿 98%饱和 -->
      <stop offset="100%" stop-color="#33CC00"/> <!-- 活力绿 100%饱和 -->
    </linearGradient>
  </defs>

  <!-- 柱子1: 绿色 -->
  <g>
    <rect x="0" y="59" width="69" height="684" fill="url(#grad-blue)"/>
    <rect x="69" y="59" width="69" height="684" fill="url(#grad-green)"/>
    <polygon points="0,59 138,59 69,128" fill="#00BFFF"/> <!-- 高饱和天青 -->
    <polygon points="0,743 138,743 69,674" fill="#B6FF00"/> <!-- 高饱和黄绿 -->
  </g>

  <!-- 柱子2: 绿色 -->
  <g>
    <rect x="232" y="401" width="69" height="342" fill="url(#grad-blue)"/>
    <rect x="301" y="401" width="69" height="342" fill="url(#grad-green)"/>
    <polygon points="232,401 370,401 301,470" fill="#00BFFF"/>
    <polygon points="232,743 370,743 301,674" fill="#B6FF00"/>
  </g>

  <!-- 柱子3: 红色 (左右颜色交换) -->
  <g>
    <rect x="496" y="122" width="69" height="342" fill="url(#grad-green)"/>
    <rect x="565" y="122" width="69" height="342" fill="url(#grad-blue)"/>
    <polygon points="496,122 634,122 565,191" fill="#B6FF00"/> <!-- 顶部绿三角 -->
    <polygon points="496,464 634,464 565,395" fill="#00BFFF"/> <!-- 底部蓝三角 -->
  </g>

  <!-- 柱子4: 红色 -->
  <g>
    <rect x="728" y="122" width="69" height="684" fill="url(#grad-green)"/>
    <rect x="797" y="122" width="69" height="684" fill="url(#grad-blue)"/>
    <polygon points="728,122 866,122 797,191" fill="#B6FF00"/>
    <polygon points="728,806 866,806 797,737" fill="#00BFFF"/>
  </g>
</svg>
